<?xml version="1.0" encoding="utf-8"?>
<!-- Generator: Adobe Illustrator 16.0.0, SVG Export Plug-In . SVG Version: 6.00 Build 0)  -->
<!DOCTYPE svg PUBLIC "-//W3C//DTD SVG 1.1//EN" "http://www.w3.org/Graphics/SVG/1.1/DTD/svg11.dtd">
<svg version="1.1" id="Layer_1" xmlns="http://www.w3.org/2000/svg" xmlns:xlink="http://www.w3.org/1999/xlink" x="0px" y="0px"
	 width="800px" height="600px" viewBox="0 0 800 600" enable-background="new 0 0 800 600" xml:space="preserve">
<rect width="100%" height="100%" fill="#fff"/>
<rect x="200" y="100" fill="#00FFFF" width="200" height="300"/>
<line fill="none" stroke="#FF0000" stroke-width="3" stroke-miterlimit="10" x1="0" y1="183.5" x2="200" y2="183.5"/>
<line fill="none" stroke="#FF0000" stroke-width="3" stroke-miterlimit="10" x1="400" y1="183.5" x2="800" y2="183.5"/>
<text transform="matrix(1 0 0 1 586 213)"><tspan x="0" y="0" fill="#FF0000" font-family="'Arial'" font-size="24">“# 400”</tspan><tspan x="0" y="28.8" fill="#FF0000" font-family="'Arial'" font-size="24">“# 50%x”</tspan></text>
<text transform="matrix(1 0 0 1 19 213)"><tspan x="0" y="0" fill="#FF0000" font-family="'Arial'" font-size="24">200</tspan><tspan x="0" y="28.8" fill="#FF0000" font-family="'Arial'" font-size="24">“200”</tspan><tspan x="0" y="57.6" fill="#FF0000" font-family="'Arial'" font-size="24">“25%x”</tspan></text>
<line fill="none" stroke="#00FF00" stroke-width="3" stroke-miterlimit="10" x1="259.5" y1="100" x2="259.5" y2="0"/>
<line fill="none" stroke="#00FF00" stroke-width="3" stroke-miterlimit="10" x1="259.5" y1="600" x2="259.5" y2="400"/>
<text transform="matrix(1 0 0 1 272 500)"><tspan x="0" y="0" fill="#00FF00" font-family="'Arial'" font-size="24">“# 200”</tspan><tspan x="0" y="28.8" fill="#00FF00" font-family="'Arial'" font-size="24">“# 33%y”</tspan></text>
<text transform="matrix(1 0 0 1 272 28)"><tspan x="0" y="0" fill="#00FF00" font-family="'Arial'" font-size="24">100</tspan><tspan x="0" y="28.8" fill="#00FF00" font-family="'Arial'" font-size="24">“100”</tspan><tspan x="0" y="57.6" fill="#00FF00" font-family="'Arial'" font-size="24">“16%y”</tspan></text>
<line fill="none" stroke="#0000FF" stroke-width="3" stroke-miterlimit="10" x1="341.5" y1="400" x2="341.5" y2="100"/>
<text transform="matrix(1 0 0 1 253.5 126)"><tspan x="0" y="0" fill="#0000FF" font-family="'Arial'" font-size="24">300</tspan><tspan x="0" y="28.8" fill="#0000FF" font-family="'Arial'" font-size="24">“300”</tspan><tspan x="0" y="57.6" fill="#0000FF" font-family="'Arial'" font-size="24">“50%y”</tspan></text>
<line fill="none" stroke="#000000" stroke-width="3" stroke-miterlimit="10" x1="200" y1="319.5" x2="400" y2="319.5"/>
<text transform="matrix(1 0 0 1 221.5 250)"><tspan x="0" y="0" font-family="'Arial'" font-size="24">200</tspan><tspan x="0" y="28.8" font-family="'Arial'" font-size="24">“200”</tspan><tspan x="0" y="57.6" font-family="'Arial'" font-size="24">“25%x”</tspan></text>
<line fill="none" stroke="#000000" stroke-width="3" stroke-miterlimit="10" x1="0" y1="575.5" x2="800" y2="575.5"/>
<text transform="matrix(1 0 0 1 21.5 506)"><tspan x="0" y="0" font-family="'Arial'" font-size="24">800</tspan><tspan x="0" y="28.8" font-family="'Arial'" font-size="24">“800”</tspan><tspan x="0" y="57.6" font-family="'Arial'" font-size="24">“100%x”</tspan></text>
<line fill="none" stroke="#0000FF" stroke-width="3" stroke-miterlimit="10" x1="740.5" y1="600" x2="740.5" y2="0"/>
<text transform="matrix(1 0 0 1 639.5 28)"><tspan x="0" y="0" fill="#0000FF" font-family="'Arial'" font-size="24">600</tspan><tspan x="0" y="28.8" fill="#0000FF" font-family="'Arial'" font-size="24">“600”</tspan><tspan x="0" y="57.6" fill="#0000FF" font-family="'Arial'" font-size="24">“100%y”</tspan></text>
</svg>
